<?xml version="1.0" encoding="UTF-8"?>
<!DOCTYPE svg PUBLIC "-//W3C//DTD SVG 1.1//EN" "http://www.w3.org/Graphics/SVG/1.1/DTD/svg11.dtd">
<svg xmlns="http://www.w3.org/2000/svg" version="1.1" width="24px" height="24px" style="shape-rendering:geometricPrecision; text-rendering:geometricPrecision; image-rendering:optimizeQuality; fill-rule:evenodd; clip-rule:evenodd" xmlns:xlink="http://www.w3.org/1999/xlink">
    <g><path style="opacity:1" fill="#1e430f" d="M -0.99,-0.99 C 7.99,-0.99 15.99,-0.99 23.99,-0.99C 23.99,7.99 23.99,15.99 23.99,23.99C 15.99,23.99 7.99,23.99 -0.99,23.99C -0.99,15.99 -0.99,7.99 -0.99,-0.99 Z M 8.99,8.99 C 10.99,8.99 12.99,8.99 14.99,8.99C 14.99,10.99 14.99,12.99 14.99,14.99C 12.99,14.99 10.99,14.99 8.99,14.99C 8.99,12.99 8.99,10.99 8.99,8.99 Z"/></g>
    <g><path style="opacity:1" fill="#649421" d="M 2.99,2.99 C 8.99,2.99 14.99,2.99 20.99,2.99C 20.99,8.99 20.99,14.99 20.99,20.99C 14.99,20.99 8.99,20.99 2.99,20.99C 2.99,14.99 2.99,8.99 2.99,2.99 Z M 8.99,8.99 C 8.99,10.99 8.99,12.99 8.99,14.99C 10.99,14.99 12.99,14.99 14.99,14.99C 14.99,12.99 14.99,10.99 14.99,8.99C 12.99,8.99 10.99,8.99 8.99,8.99 Z"/></g>
    <g><path style="opacity:1" fill="#1e430f" d="M 5.99,5.99 C 9.99,5.99 13.99,5.99 17.99,5.99C 17.99,9.99 17.99,13.99 17.99,17.99C 13.99,17.99 9.99,17.99 5.99,17.99C 5.99,13.99 5.99,9.99 5.99,5.99 Z M 8.99,8.99 C 8.99,10.99 8.99,12.99 8.99,14.99C 10.99,14.99 12.99,14.99 14.99,14.99C 14.99,12.99 14.99,10.99 14.99,8.99C 12.99,8.99 10.99,8.99 8.99,8.99 Z"/></g>
</svg>
