<?xml version="1.0" encoding="UTF-8"?>
<!DOCTYPE svg PUBLIC "-//W3C//DTD SVG 1.1//EN" "http://www.w3.org/Graphics/SVG/1.1/DTD/svg11.dtd">
<svg xmlns="http://www.w3.org/2000/svg" version="1.1" width="24px" height="24px" style="shape-rendering:geometricPrecision; text-rendering:geometricPrecision; image-rendering:optimizeQuality; fill-rule:evenodd; clip-rule:evenodd" xmlns:xlink="http://www.w3.org/1999/xlink">
    <g><path style="opacity:1" fill="#1e430e" d="M -0.99,-0.99 C 7.99,-0.99 15.99,-0.99 23.99,-0.99C 23.99,3.99 23.99,7.99 23.99,11.99C 21.99,11.99 19.99,11.99 17.99,11.99C 17.99,13.99 17.99,15.99 17.99,17.99C 19.99,17.99 21.99,17.99 23.99,17.99C 23.99,19.99 23.99,21.99 23.99,23.99C 22.99,23.99 21.99,23.99 20.99,23.99C 20.99,22.99 20.99,21.99 20.99,20.99C 17.99,20.99 14.99,20.99 11.99,20.99C 11.99,21.99 11.99,22.99 11.99,23.99C 10.99,23.99 9.99,23.99 8.99,23.99C 8.99,22.99 8.99,21.99 8.99,20.99C 5.99,20.99 2.99,20.99 -0.99,20.99C -0.99,19.99 -0.99,18.99 -0.99,17.99C 0.99,17.99 1.99,17.99 2.99,17.99C 2.99,15.99 2.99,13.99 2.99,11.99C 1.99,11.99 0.99,11.99 -0.99,11.99C -0.99,10.99 -0.99,9.99 -0.99,8.99C 2.99,8.99 5.99,8.99 8.99,8.99C 8.99,6.99 8.99,4.99 8.99,2.99C 5.99,2.99 2.99,2.99 -0.99,2.99C -0.99,1.99 -0.99,0.99 -0.99,-0.99 Z"/></g>
    <g><path style="opacity:1" fill="#6a9514" d="M -0.99,2.99 C 2.99,2.99 5.99,2.99 8.99,2.99C 8.99,4.99 8.99,6.99 8.99,8.99C 5.99,8.99 2.99,8.99 -0.99,8.99C -0.99,6.99 -0.99,4.99 -0.99,2.99 Z"/></g>
    <g><path style="opacity:1" fill="#6a9514" d="M 11.99,2.99 C 14.99,2.99 17.99,2.99 20.99,2.99C 20.99,4.99 20.99,6.99 20.99,8.99C 17.99,8.99 14.99,8.99 11.99,8.99C 11.99,6.99 11.99,4.99 11.99,2.99 Z"/></g>
    <g><path style="opacity:1" fill="#6a9514" d="M -0.99,11.99 C 0.99,11.99 1.99,11.99 2.99,11.99C 2.99,13.99 2.99,15.99 2.99,17.99C 1.99,17.99 0.99,17.99 -0.99,17.99C -0.99,15.99 -0.99,13.99 -0.99,11.99 Z"/></g>
    <g><path style="opacity:1" fill="#6a9514" d="M 5.99,11.99 C 8.99,11.99 11.99,11.99 14.99,11.99C 14.99,13.99 14.99,15.99 14.99,17.99C 11.99,17.99 8.99,17.99 5.99,17.99C 5.99,15.99 5.99,13.99 5.99,11.99 Z"/></g>
    <g><path style="opacity:1" fill="#6a9514" d="M 23.99,11.99 C 23.99,13.99 23.99,15.99 23.99,17.99C 21.99,17.99 19.99,17.99 17.99,17.99C 17.99,15.99 17.99,13.99 17.99,11.99C 19.99,11.99 21.99,11.99 23.99,11.99 Z"/></g>
    <g><path style="opacity:1" fill="#6a9514" d="M -0.99,20.99 C 2.99,20.99 5.99,20.99 8.99,20.99C 8.99,21.99 8.99,22.99 8.99,23.99C 5.99,23.99 2.99,23.99 -0.99,23.99C -0.99,22.99 -0.99,21.99 -0.99,20.99 Z"/></g>
    <g><path style="opacity:1" fill="#6a9514" d="M 20.99,23.99 C 17.99,23.99 14.99,23.99 11.99,23.99C 11.99,22.99 11.99,21.99 11.99,20.99C 14.99,20.99 17.99,20.99 20.99,20.99C 20.99,21.99 20.99,22.99 20.99,23.99 Z"/></g>
</svg>
