<?xml version="1.0" encoding="UTF-8"?>
<!DOCTYPE svg PUBLIC "-//W3C//DTD SVG 1.1//EN" "http://www.w3.org/Graphics/SVG/1.1/DTD/svg11.dtd">
<svg xmlns="http://www.w3.org/2000/svg" version="1.1" width="24px" height="24px" style="shape-rendering:geometricPrecision; text-rendering:geometricPrecision; image-rendering:optimizeQuality; fill-rule:evenodd; clip-rule:evenodd" xmlns:xlink="http://www.w3.org/1999/xlink">
    <g><path style="opacity:1" fill="#1e430f" d="M -0.99,-0.99 C 7.99,-0.99 15.99,-0.99 23.99,-0.99C 23.99,7.99 23.99,15.99 23.99,23.99C 15.99,23.99 7.99,23.99 -0.99,23.99C -0.99,15.99 -0.99,7.99 -0.99,-0.99 Z"/></g>
    <g><path style="opacity:1" fill="#6a961d" d="M 5.99,2.99 C 5.99,3.99 5.99,4.99 5.99,5.99C 6.99,5.99 7.99,5.99 8.99,5.99C 8.99,4.99 8.99,3.99 8.99,2.99C 10.99,2.99 12.99,2.99 14.99,2.99C 14.99,3.99 14.99,4.99 14.99,5.99C 15.99,5.99 16.99,5.99 17.99,5.99C 17.99,4.99 17.99,3.99 17.99,2.99C 18.99,2.99 19.99,2.99 20.99,2.99C 20.99,4.99 20.99,6.99 20.99,8.99C 19.99,8.99 18.99,8.99 17.99,8.99C 17.99,9.99 17.99,10.99 17.99,11.99C 18.99,11.99 19.99,11.99 20.99,11.99C 20.99,12.99 20.99,13.99 20.99,14.99C 19.99,14.99 18.99,14.99 17.99,14.99C 17.99,15.99 17.99,16.99 17.99,17.99C 18.99,17.99 19.99,17.99 20.99,17.99C 20.99,18.99 20.99,19.99 20.99,20.99C 18.99,20.99 16.99,20.99 14.99,20.99C 14.99,19.99 14.99,18.99 14.99,17.99C 13.99,17.99 12.99,17.99 11.99,17.99C 11.99,18.99 11.99,19.99 11.99,20.99C 9.99,20.99 7.99,20.99 5.99,20.99C 5.99,19.99 5.99,18.99 5.99,17.99C 4.99,17.99 3.99,17.99 2.99,17.99C 2.99,15.99 2.99,13.99 2.99,11.99C 3.99,11.99 4.99,11.99 5.99,11.99C 5.99,10.99 5.99,9.99 5.99,8.99C 4.99,8.99 3.99,8.99 2.99,8.99C 2.99,6.99 2.99,4.99 2.99,2.99C 3.99,2.99 4.99,2.99 5.99,2.99 Z"/></g>
    <g><path style="opacity:1" fill="#416812" d="M 5.99,2.99 C 6.99,2.99 7.99,2.99 8.99,2.99C 8.99,3.99 8.99,4.99 8.99,5.99C 7.99,5.99 6.99,5.99 5.99,5.99C 5.99,4.99 5.99,3.99 5.99,2.99 Z"/></g>
    <g><path style="opacity:1" fill="#416812" d="M 14.99,2.99 C 15.99,2.99 16.99,2.99 17.99,2.99C 17.99,3.99 17.99,4.99 17.99,5.99C 16.99,5.99 15.99,5.99 14.99,5.99C 14.99,4.99 14.99,3.99 14.99,2.99 Z"/></g>
    <g><path style="opacity:1" fill="#416812" d="M 14.99,5.99 C 14.99,6.99 14.99,7.99 14.99,8.99C 13.99,8.99 12.99,8.99 11.99,8.99C 11.99,7.99 11.99,6.99 11.99,5.99C 12.99,5.99 13.99,5.99 14.99,5.99 Z"/></g>
    <g><path style="opacity:1" fill="#416812" d="M 2.99,8.99 C 3.99,8.99 4.99,8.99 5.99,8.99C 5.99,9.99 5.99,10.99 5.99,11.99C 4.99,11.99 3.99,11.99 2.99,11.99C 2.99,10.99 2.99,9.99 2.99,8.99 Z"/></g>
    <g><path style="opacity:1" fill="#416812" d="M 20.99,8.99 C 20.99,9.99 20.99,10.99 20.99,11.99C 19.99,11.99 18.99,11.99 17.99,11.99C 17.99,10.99 17.99,9.99 17.99,8.99C 18.99,8.99 19.99,8.99 20.99,8.99 Z"/></g>
    <g><path style="opacity:1" fill="#416812" d="M 8.99,11.99 C 9.99,11.99 10.99,11.99 11.99,11.99C 11.99,12.99 11.99,13.99 11.99,14.99C 10.99,14.99 9.99,14.99 8.99,14.99C 8.99,13.99 8.99,12.99 8.99,11.99 Z"/></g>
    <g><path style="opacity:1" fill="#416812" d="M 20.99,14.99 C 20.99,15.99 20.99,16.99 20.99,17.99C 19.99,17.99 18.99,17.99 17.99,17.99C 17.99,16.99 17.99,15.99 17.99,14.99C 18.99,14.99 19.99,14.99 20.99,14.99 Z"/></g>
    <g><path style="opacity:1" fill="#416812" d="M 2.99,17.99 C 3.99,17.99 4.99,17.99 5.99,17.99C 5.99,18.99 5.99,19.99 5.99,20.99C 4.99,20.99 3.99,20.99 2.99,20.99C 2.99,19.99 2.99,18.99 2.99,17.99 Z"/></g>
    <g><path style="opacity:1" fill="#416812" d="M 14.99,20.99 C 13.99,20.99 12.99,20.99 11.99,20.99C 11.99,19.99 11.99,18.99 11.99,17.99C 12.99,17.99 13.99,17.99 14.99,17.99C 14.99,18.99 14.99,19.99 14.99,20.99 Z"/></g>
</svg>
